<?xml version="1.0" encoding="utf-8" standalone="no"?>
<!DOCTYPE svg PUBLIC "-//W3C//DTD SVG 1.1//EN"
  "http://www.w3.org/Graphics/SVG/1.1/DTD/svg11.dtd">
<!-- Created with matplotlib (https://matplotlib.org/) -->
<svg height="345.6pt" version="1.1" viewBox="0 0 460.8 345.6" width="460.8pt" xmlns="http://www.w3.org/2000/svg" xmlns:xlink="http://www.w3.org/1999/xlink">
 <metadata>
  <rdf:RDF xmlns:cc="http://creativecommons.org/ns#" xmlns:dc="http://purl.org/dc/elements/1.1/" xmlns:rdf="http://www.w3.org/1999/02/22-rdf-syntax-ns#">
   <cc:Work>
    <dc:type rdf:resource="http://purl.org/dc/dcmitype/StillImage"/>
    <dc:date>2020-12-15T14:20:55.922893</dc:date>
    <dc:format>image/svg+xml</dc:format>
    <dc:creator>
     <cc:Agent>
      <dc:title>Matplotlib v3.3.3, https://matplotlib.org/</dc:title>
     </cc:Agent>
    </dc:creator>
   </cc:Work>
  </rdf:RDF>
 </metadata>
 <defs>
  <style type="text/css">*{stroke-linecap:butt;stroke-linejoin:round;}</style>
 </defs>
 <g id="figure_1">
  <g id="patch_1">
   <path d="M 0 345.6 
L 460.8 345.6 
L 460.8 0 
L 0 0 
z
" style="fill:#ffffff;"/>
  </g>
  <g id="axes_1">
   <g id="patch_2">
    <path d="M 57.6 307.584 
L 414.72 307.584 
L 414.72 41.472 
L 57.6 41.472 
z
" style="fill:#ffffff;"/>
   </g>
   <g id="PathCollection_1">
    <defs>
     <path d="M 0 2.236068 
C 0.593012 2.236068 1.161816 2.000462 1.581139 1.581139 
C 2.000462 1.161816 2.236068 0.593012 2.236068 0 
C 2.236068 -0.593012 2.000462 -1.161816 1.581139 -1.581139 
C 1.161816 -2.000462 0.593012 -2.236068 0 -2.236068 
C -0.593012 -2.236068 -1.161816 -2.000462 -1.581139 -1.581139 
C -2.000462 -1.161816 -2.236068 -0.593012 -2.236068 0 
C -2.236068 0.593012 -2.000462 1.161816 -1.581139 1.581139 
C -1.161816 2.000462 -0.593012 2.236068 0 2.236068 
z
" id="mb5615ee1f9" style="stroke:#1f77b4;"/>
    </defs>
    <g clip-path="url(#p7350d1a74b)">
     <use style="fill:#1f77b4;stroke:#1f77b4;" x="149.182333" xlink:href="#mb5615ee1f9" y="276.98112"/>
     <use style="fill:#1f77b4;stroke:#1f77b4;" x="325.972064" xlink:href="#mb5615ee1f9" y="295.223098"/>
     <use style="fill:#1f77b4;stroke:#1f77b4;" x="134.749062" xlink:href="#mb5615ee1f9" y="271.65888"/>
     <use style="fill:#1f77b4;stroke:#1f77b4;" x="70.425075" xlink:href="#mb5615ee1f9" y="293.240563"/>
     <use style="fill:#1f77b4;stroke:#1f77b4;" x="144.745332" xlink:href="#mb5615ee1f9" y="100.415808"/>
     <use style="fill:#1f77b4;stroke:#1f77b4;" x="58.058934" xlink:href="#mb5615ee1f9" y="247.7088"/>
     <use style="fill:#1f77b4;stroke:#1f77b4;" x="70.467497" xlink:href="#mb5615ee1f9" y="293.28048"/>
     <use style="fill:#1f77b4;stroke:#1f77b4;" x="86.173441" xlink:href="#mb5615ee1f9" y="45.743098"/>
     <use style="fill:#1f77b4;stroke:#1f77b4;" x="72.814229" xlink:href="#mb5615ee1f9" y="292.295866"/>
     <use style="fill:#1f77b4;stroke:#1f77b4;" x="405.637549" xlink:href="#mb5615ee1f9" y="297.458438"/>
     <use style="fill:#1f77b4;stroke:#1f77b4;" x="130.20022" xlink:href="#mb5615ee1f9" y="297.857606"/>
     <use style="fill:#1f77b4;stroke:#1f77b4;" x="181.398319" xlink:href="#mb5615ee1f9" y="293.653037"/>
     <use style="fill:#1f77b4;stroke:#1f77b4;" x="76.643819" xlink:href="#mb5615ee1f9" y="293.240563"/>
     <use style="fill:#1f77b4;stroke:#1f77b4;" x="377.823855" xlink:href="#mb5615ee1f9" y="283.381114"/>
     <use style="fill:#1f77b4;stroke:#1f77b4;" x="208.18809" xlink:href="#mb5615ee1f9" y="299.693779"/>
     <use style="fill:#1f77b4;stroke:#1f77b4;" x="202.750304" xlink:href="#mb5615ee1f9" y="300.186086"/>
     <use style="fill:#1f77b4;stroke:#1f77b4;" x="77.104681" xlink:href="#mb5615ee1f9" y="241.468474"/>
     <use style="fill:#1f77b4;stroke:#1f77b4;" x="535.149399" xlink:href="#mb5615ee1f9" y="20.462458"/>
     <use style="fill:#1f77b4;stroke:#1f77b4;" x="171.629589" xlink:href="#mb5615ee1f9" y="203.480986"/>
     <use style="fill:#1f77b4;stroke:#1f77b4;" x="58.282616" xlink:href="#mb5615ee1f9" y="267.6672"/>
     <use style="fill:#1f77b4;stroke:#1f77b4;" x="145.023006" xlink:href="#mb5615ee1f9" y="295.901683"/>
     <use style="fill:#1f77b4;stroke:#1f77b4;" x="385.46375" xlink:href="#mb5615ee1f9" y="295.409376"/>
     <use style="fill:#1f77b4;stroke:#1f77b4;" x="132.18829" xlink:href="#mb5615ee1f9" y="251.128339"/>
     <use style="fill:#1f77b4;stroke:#1f77b4;" x="322.020992" xlink:href="#mb5615ee1f9" y="192.996173"/>
     <use style="fill:#1f77b4;stroke:#1f77b4;" x="269.687129" xlink:href="#mb5615ee1f9" y="247.748717"/>
     <use style="fill:#1f77b4;stroke:#1f77b4;" x="64.912086" xlink:href="#mb5615ee1f9" y="257.02272"/>
     <use style="fill:#1f77b4;stroke:#1f77b4;" x="202.011768" xlink:href="#mb5615ee1f9" y="243.823565"/>
     <use style="fill:#1f77b4;stroke:#1f77b4;" x="140.121286" xlink:href="#mb5615ee1f9" y="115.238246"/>
     <use style="fill:#1f77b4;stroke:#1f77b4;" x="127.473614" xlink:href="#mb5615ee1f9" y="69.41376"/>
     <use style="fill:#1f77b4;stroke:#1f77b4;" x="61.01115" xlink:href="#mb5615ee1f9" y="263.635603"/>
     <use style="fill:#1f77b4;stroke:#1f77b4;" x="94.31855" xlink:href="#mb5615ee1f9" y="239.446022"/>
     <use style="fill:#1f77b4;stroke:#1f77b4;" x="149.550637" xlink:href="#mb5615ee1f9" y="138.310157"/>
     <use style="fill:#1f77b4;stroke:#1f77b4;" x="58.415668" xlink:href="#mb5615ee1f9" y="264.873024"/>
     <use style="fill:#1f77b4;stroke:#1f77b4;" x="181.396391" xlink:href="#mb5615ee1f9" y="282.30336"/>
     <use style="fill:#1f77b4;stroke:#1f77b4;" x="62.25297" xlink:href="#mb5615ee1f9" y="260.362426"/>
     <use style="fill:#1f77b4;stroke:#1f77b4;" x="375.384564" xlink:href="#mb5615ee1f9" y="300.332448"/>
     <use style="fill:#1f77b4;stroke:#1f77b4;" x="65.843451" xlink:href="#mb5615ee1f9" y="255.093408"/>
     <use style="fill:#1f77b4;stroke:#1f77b4;" x="345.38033" xlink:href="#mb5615ee1f9" y="251.620646"/>
     <use style="fill:#1f77b4;stroke:#1f77b4;" x="224.432027" xlink:href="#mb5615ee1f9" y="203.268096"/>
     <use style="fill:#1f77b4;stroke:#1f77b4;" x="249.413059" xlink:href="#mb5615ee1f9" y="297.258854"/>
     <use style="fill:#1f77b4;stroke:#1f77b4;" x="60.122207" xlink:href="#mb5615ee1f9" y="250.58281"/>
     <use style="fill:#1f77b4;stroke:#1f77b4;" x="57.682917" xlink:href="#mb5615ee1f9" y="266.602752"/>
     <use style="fill:#1f77b4;stroke:#1f77b4;" x="58.191986" xlink:href="#mb5615ee1f9" y="143.92512"/>
     <use style="fill:#1f77b4;stroke:#1f77b4;" x="58.427238" xlink:href="#mb5615ee1f9" y="143.92512"/>
     <use style="fill:#1f77b4;stroke:#1f77b4;" x="77.299438" xlink:href="#mb5615ee1f9" y="302.674234"/>
     <use style="fill:#1f77b4;stroke:#1f77b4;" x="71.907932" xlink:href="#mb5615ee1f9" y="302.47465"/>
     <use style="fill:#1f77b4;stroke:#1f77b4;" x="232.675479" xlink:href="#mb5615ee1f9" y="246.910464"/>
     <use style="fill:#1f77b4;stroke:#1f77b4;" x="72.401575" xlink:href="#mb5615ee1f9" y="287.6256"/>
     <use style="fill:#1f77b4;stroke:#1f77b4;" x="125.248364" xlink:href="#mb5615ee1f9" y="302.581094"/>
     <use style="fill:#1f77b4;stroke:#1f77b4;" x="298.439901" xlink:href="#mb5615ee1f9" y="254.401517"/>
     <use style="fill:#1f77b4;stroke:#1f77b4;" x="435.188634" xlink:href="#mb5615ee1f9" y="258.56617"/>
     <use style="fill:#1f77b4;stroke:#1f77b4;" x="93.09794" xlink:href="#mb5615ee1f9" y="260.548704"/>
     <use style="fill:#1f77b4;stroke:#1f77b4;" x="140.620714" xlink:href="#mb5615ee1f9" y="300.571949"/>
     <use style="fill:#1f77b4;stroke:#1f77b4;" x="131.469037" xlink:href="#mb5615ee1f9" y="301.875898"/>
     <use style="fill:#1f77b4;stroke:#1f77b4;" x="90.201645" xlink:href="#mb5615ee1f9" y="260.575315"/>
     <use style="fill:#1f77b4;stroke:#1f77b4;" x="120.39678" xlink:href="#mb5615ee1f9" y="258.446419"/>
     <use style="fill:#1f77b4;stroke:#1f77b4;" x="83.903841" xlink:href="#mb5615ee1f9" y="286.29504"/>
     <use style="fill:#1f77b4;stroke:#1f77b4;" x="79.90649" xlink:href="#mb5615ee1f9" y="279.030182"/>
     <use style="fill:#1f77b4;stroke:#1f77b4;" x="130.728572" xlink:href="#mb5615ee1f9" y="302.181926"/>
     <use style="fill:#1f77b4;stroke:#1f77b4;" x="111.682825" xlink:href="#mb5615ee1f9" y="304.736602"/>
     <use style="fill:#1f77b4;stroke:#1f77b4;" x="57.7022" xlink:href="#mb5615ee1f9" y="292.28256"/>
     <use style="fill:#1f77b4;stroke:#1f77b4;" x="102.259259" xlink:href="#mb5615ee1f9" y="267.959923"/>
     <use style="fill:#1f77b4;stroke:#1f77b4;" x="165.206446" xlink:href="#mb5615ee1f9" y="302.541178"/>
     <use style="fill:#1f77b4;stroke:#1f77b4;" x="140.119358" xlink:href="#mb5615ee1f9" y="258.765754"/>
     <use style="fill:#1f77b4;stroke:#1f77b4;" x="300.561023" xlink:href="#mb5615ee1f9" y="253.536653"/>
     <use style="fill:#1f77b4;stroke:#1f77b4;" x="205.430631" xlink:href="#mb5615ee1f9" y="252.219398"/>
     <use style="fill:#1f77b4;stroke:#1f77b4;" x="93.375614" xlink:href="#mb5615ee1f9" y="270.315014"/>
     <use style="fill:#1f77b4;stroke:#1f77b4;" x="107.19376" xlink:href="#mb5615ee1f9" y="303.765293"/>
     <use style="fill:#1f77b4;stroke:#1f77b4;" x="116.810156" xlink:href="#mb5615ee1f9" y="283.63392"/>
     <use style="fill:#1f77b4;stroke:#1f77b4;" x="108.096201" xlink:href="#mb5615ee1f9" y="303.658848"/>
     <use style="fill:#1f77b4;stroke:#1f77b4;" x="418.935055" xlink:href="#mb5615ee1f9" y="284.591923"/>
     <use style="fill:#1f77b4;stroke:#1f77b4;" x="701.044276" xlink:href="#mb5615ee1f9" y="121.664851"/>
     <use style="fill:#1f77b4;stroke:#1f77b4;" x="253.979256" xlink:href="#mb5615ee1f9" y="186.117178"/>
     <use style="fill:#1f77b4;stroke:#1f77b4;" x="355.538576" xlink:href="#mb5615ee1f9" y="302.47465"/>
     <use style="fill:#1f77b4;stroke:#1f77b4;" x="154.689537" xlink:href="#mb5615ee1f9" y="298.376525"/>
     <use style="fill:#1f77b4;stroke:#1f77b4;" x="112.07234" xlink:href="#mb5615ee1f9" y="273.228941"/>
     <use style="fill:#1f77b4;stroke:#1f77b4;" x="289.120462" xlink:href="#mb5615ee1f9" y="297.445133"/>
     <use style="fill:#1f77b4;stroke:#1f77b4;" x="73.834296" xlink:href="#mb5615ee1f9" y="284.96448"/>
     <use style="fill:#1f77b4;stroke:#1f77b4;" x="108.252393" xlink:href="#mb5615ee1f9" y="302.208538"/>
     <use style="fill:#1f77b4;stroke:#1f77b4;" x="122.178522" xlink:href="#mb5615ee1f9" y="304.497101"/>
     <use style="fill:#1f77b4;stroke:#1f77b4;" x="59.780899" xlink:href="#mb5615ee1f9" y="272.457216"/>
     <use style="fill:#1f77b4;stroke:#1f77b4;" x="537.660068" xlink:href="#mb5615ee1f9" y="-1"/>
     <use style="fill:#1f77b4;stroke:#1f77b4;" x="539.791364" xlink:href="#mb5615ee1f9" y="-1"/>
     <use style="fill:#1f77b4;stroke:#1f77b4;" x="206.487336" xlink:href="#mb5615ee1f9" y="267.6672"/>
     <use style="fill:#1f77b4;stroke:#1f77b4;" x="97.646783" xlink:href="#mb5615ee1f9" y="266.416474"/>
     <use style="fill:#1f77b4;stroke:#1f77b4;" x="140.427884" xlink:href="#mb5615ee1f9" y="267.294643"/>
     <use style="fill:#1f77b4;stroke:#1f77b4;" x="227.700484" xlink:href="#mb5615ee1f9" y="270.794016"/>
     <use style="fill:#1f77b4;stroke:#1f77b4;" x="106.595989" xlink:href="#mb5615ee1f9" y="275.450976"/>
     <use style="fill:#1f77b4;stroke:#1f77b4;" x="377.667663" xlink:href="#mb5615ee1f9" y="275.783616"/>
     <use style="fill:#1f77b4;stroke:#1f77b4;" x="80.269009" xlink:href="#mb5615ee1f9" y="301.80937"/>
     <use style="fill:#1f77b4;stroke:#1f77b4;" x="386.256279" xlink:href="#mb5615ee1f9" y="275.783616"/>
     <use style="fill:#1f77b4;stroke:#1f77b4;" x="70.617904" xlink:href="#mb5615ee1f9" y="228.615264"/>
     <use style="fill:#1f77b4;stroke:#1f77b4;" x="133.673075" xlink:href="#mb5615ee1f9" y="274.838918"/>
     <use style="fill:#1f77b4;stroke:#1f77b4;" x="117.564118" xlink:href="#mb5615ee1f9" y="275.450976"/>
     <use style="fill:#1f77b4;stroke:#1f77b4;" x="294.440622" xlink:href="#mb5615ee1f9" y="266.948698"/>
     <use style="fill:#1f77b4;stroke:#1f77b4;" x="225.538867" xlink:href="#mb5615ee1f9" y="273.588192"/>
     <use style="fill:#1f77b4;stroke:#1f77b4;" x="82.284075" xlink:href="#mb5615ee1f9" y="300.984422"/>
     <use style="fill:#1f77b4;stroke:#1f77b4;" x="1088.897212" xlink:href="#mb5615ee1f9" y="285.097536"/>
     <use style="fill:#1f77b4;stroke:#1f77b4;" x="64.56885" xlink:href="#mb5615ee1f9" y="264.287578"/>
     <use style="fill:#1f77b4;stroke:#1f77b4;" x="57.875746" xlink:href="#mb5615ee1f9" y="276.98112"/>
     <use style="fill:#1f77b4;stroke:#1f77b4;" x="60.048932" xlink:href="#mb5615ee1f9" y="276.382368"/>
     <use style="fill:#1f77b4;stroke:#1f77b4;" x="74.956563" xlink:href="#mb5615ee1f9" y="302.541178"/>
     <use style="fill:#1f77b4;stroke:#1f77b4;" x="99.758263" xlink:href="#mb5615ee1f9" y="264.620218"/>
     <use style="fill:#1f77b4;stroke:#1f77b4;" x="174.334983" xlink:href="#mb5615ee1f9" y="190.095552"/>
     <use style="fill:#1f77b4;stroke:#1f77b4;" x="186.444661" xlink:href="#mb5615ee1f9" y="189.297216"/>
     <use style="fill:#1f77b4;stroke:#1f77b4;" x="72.07955" xlink:href="#mb5615ee1f9" y="186.236928"/>
     <use style="fill:#1f77b4;stroke:#1f77b4;" x="181.301905" xlink:href="#mb5615ee1f9" y="294.704179"/>
     <use style="fill:#1f77b4;stroke:#1f77b4;" x="126.293499" xlink:href="#mb5615ee1f9" y="296.81977"/>
     <use style="fill:#1f77b4;stroke:#1f77b4;" x="140.132856" xlink:href="#mb5615ee1f9" y="269.54329"/>
     <use style="fill:#1f77b4;stroke:#1f77b4;" x="138.91996" xlink:href="#mb5615ee1f9" y="269.54329"/>
     <use style="fill:#1f77b4;stroke:#1f77b4;" x="210.795141" xlink:href="#mb5615ee1f9" y="292.94784"/>
     <use style="fill:#1f77b4;stroke:#1f77b4;" x="105.514217" xlink:href="#mb5615ee1f9" y="275.477587"/>
     <use style="fill:#1f77b4;stroke:#1f77b4;" x="74.759877" xlink:href="#mb5615ee1f9" y="300.05303"/>
     <use style="fill:#1f77b4;stroke:#1f77b4;" x="189.824958" xlink:href="#mb5615ee1f9" y="276.329146"/>
     <use style="fill:#1f77b4;stroke:#1f77b4;" x="156.642898" xlink:href="#mb5615ee1f9" y="259.550784"/>
     <use style="fill:#1f77b4;stroke:#1f77b4;" x="141.688988" xlink:href="#mb5615ee1f9" y="294.15865"/>
     <use style="fill:#1f77b4;stroke:#1f77b4;" x="252.000828" xlink:href="#mb5615ee1f9" y="271.77863"/>
     <use style="fill:#1f77b4;stroke:#1f77b4;" x="240.296091" xlink:href="#mb5615ee1f9" y="245.367014"/>
     <use style="fill:#1f77b4;stroke:#1f77b4;" x="168.336065" xlink:href="#mb5615ee1f9" y="195.81696"/>
     <use style="fill:#1f77b4;stroke:#1f77b4;" x="168.764146" xlink:href="#mb5615ee1f9" y="195.81696"/>
     <use style="fill:#1f77b4;stroke:#1f77b4;" x="172.956254" xlink:href="#mb5615ee1f9" y="171.334656"/>
     <use style="fill:#1f77b4;stroke:#1f77b4;" x="81.813571" xlink:href="#mb5615ee1f9" y="258.632698"/>
     <use style="fill:#1f77b4;stroke:#1f77b4;" x="72.528842" xlink:href="#mb5615ee1f9" y="273.149107"/>
     <use style="fill:#1f77b4;stroke:#1f77b4;" x="57.97216" xlink:href="#mb5615ee1f9" y="273.601498"/>
     <use style="fill:#1f77b4;stroke:#1f77b4;" x="100.782187" xlink:href="#mb5615ee1f9" y="255.492576"/>
     <use style="fill:#1f77b4;stroke:#1f77b4;" x="169.43601" xlink:href="#mb5615ee1f9" y="-1"/>
     <use style="fill:#1f77b4;stroke:#1f77b4;" x="257.617952" xlink:href="#mb5615ee1f9" y="-1"/>
     <use style="fill:#1f77b4;stroke:#1f77b4;" x="281.380296" xlink:href="#mb5615ee1f9" y="303.006874"/>
     <use style="fill:#1f77b4;stroke:#1f77b4;" x="57.661705" xlink:href="#mb5615ee1f9" y="286.29504"/>
     <use style="fill:#1f77b4;stroke:#1f77b4;" x="248.743942" xlink:href="#mb5615ee1f9" y="292.442227"/>
     <use style="fill:#1f77b4;stroke:#1f77b4;" x="57.9953" xlink:href="#mb5615ee1f9" y="175.326336"/>
     <use style="fill:#1f77b4;stroke:#1f77b4;" x="349.907961" xlink:href="#mb5615ee1f9" y="273.122496"/>
     <use style="fill:#1f77b4;stroke:#1f77b4;" x="83.093958" xlink:href="#mb5615ee1f9" y="303.432653"/>
     <use style="fill:#1f77b4;stroke:#1f77b4;" x="277.500571" xlink:href="#mb5615ee1f9" y="285.935789"/>
     <use style="fill:#1f77b4;stroke:#1f77b4;" x="150.169619" xlink:href="#mb5615ee1f9" y="299.547418"/>
     <use style="fill:#1f77b4;stroke:#1f77b4;" x="159.919067" xlink:href="#mb5615ee1f9" y="297.6048"/>
     <use style="fill:#1f77b4;stroke:#1f77b4;" x="57.661705" xlink:href="#mb5615ee1f9" y="222.827328"/>
     <use style="fill:#1f77b4;stroke:#1f77b4;" x="229.299038" xlink:href="#mb5615ee1f9" y="305.361965"/>
     <use style="fill:#1f77b4;stroke:#1f77b4;" x="286.584758" xlink:href="#mb5615ee1f9" y="295.60896"/>
     <use style="fill:#1f77b4;stroke:#1f77b4;" x="200.27671" xlink:href="#mb5615ee1f9" y="-1"/>
     <use style="fill:#1f77b4;stroke:#1f77b4;" x="60.151348" xlink:href="#mb5615ee1f9" y="-1"/>
     <use style="fill:#1f77b4;stroke:#1f77b4;" x="61.475868" xlink:href="#mb5615ee1f9" y="281.957414"/>
     <use style="fill:#1f77b4;stroke:#1f77b4;" x="166.847423" xlink:href="#mb5615ee1f9" y="274.945363"/>
     <use style="fill:#1f77b4;stroke:#1f77b4;" x="229.426305" xlink:href="#mb5615ee1f9" y="273.082579"/>
     <use style="fill:#1f77b4;stroke:#1f77b4;" x="232.096991" xlink:href="#mb5615ee1f9" y="300.638477"/>
     <use style="fill:#1f77b4;stroke:#1f77b4;" x="170.110094" xlink:href="#mb5615ee1f9" y="299.853446"/>
     <use style="fill:#1f77b4;stroke:#1f77b4;" x="57.981802" xlink:href="#mb5615ee1f9" y="220.698432"/>
     <use style="fill:#1f77b4;stroke:#1f77b4;" x="103.620633" xlink:href="#mb5615ee1f9" y="277.406899"/>
     <use style="fill:#1f77b4;stroke:#1f77b4;" x="159.180531" xlink:href="#mb5615ee1f9" y="276.914592"/>
     <use style="fill:#1f77b4;stroke:#1f77b4;" x="268.397101" xlink:href="#mb5615ee1f9" y="269.011066"/>
     <use style="fill:#1f77b4;stroke:#1f77b4;" x="181.172709" xlink:href="#mb5615ee1f9" y="267.494227"/>
     <use style="fill:#1f77b4;stroke:#1f77b4;" x="81.985189" xlink:href="#mb5615ee1f9" y="300.71831"/>
     <use style="fill:#1f77b4;stroke:#1f77b4;" x="81.06925" xlink:href="#mb5615ee1f9" y="300.71831"/>
     <use style="fill:#1f77b4;stroke:#1f77b4;" x="64.686476" xlink:href="#mb5615ee1f9" y="279.628934"/>
     <use style="fill:#1f77b4;stroke:#1f77b4;" x="65.33631" xlink:href="#mb5615ee1f9" y="279.469267"/>
     <use style="fill:#1f77b4;stroke:#1f77b4;" x="77.014051" xlink:href="#mb5615ee1f9" y="300.372365"/>
     <use style="fill:#1f77b4;stroke:#1f77b4;" x="233.309887" xlink:href="#mb5615ee1f9" y="249.717946"/>
     <use style="fill:#1f77b4;stroke:#1f77b4;" x="85.83599" xlink:href="#mb5615ee1f9" y="274.43975"/>
     <use style="fill:#1f77b4;stroke:#1f77b4;" x="86.736503" xlink:href="#mb5615ee1f9" y="274.43975"/>
     <use style="fill:#1f77b4;stroke:#1f77b4;" x="156.012346" xlink:href="#mb5615ee1f9" y="255.838522"/>
     <use style="fill:#1f77b4;stroke:#1f77b4;" x="98.030513" xlink:href="#mb5615ee1f9" y="271.193184"/>
     <use style="fill:#1f77b4;stroke:#1f77b4;" x="281.611691" xlink:href="#mb5615ee1f9" y="266.163667"/>
     <use style="fill:#1f77b4;stroke:#1f77b4;" x="252.112669" xlink:href="#mb5615ee1f9" y="266.828947"/>
     <use style="fill:#1f77b4;stroke:#1f77b4;" x="248.630172" xlink:href="#mb5615ee1f9" y="301.982342"/>
     <use style="fill:#1f77b4;stroke:#1f77b4;" x="89.6193" xlink:href="#mb5615ee1f9" y="272.603578"/>
     <use style="fill:#1f77b4;stroke:#1f77b4;" x="57.891172" xlink:href="#mb5615ee1f9" y="205.263936"/>
     <use style="fill:#1f77b4;stroke:#1f77b4;" x="167.707441" xlink:href="#mb5615ee1f9" y="253.57657"/>
     <use style="fill:#1f77b4;stroke:#1f77b4;" x="60.856886" xlink:href="#mb5615ee1f9" y="280.240992"/>
     <use style="fill:#1f77b4;stroke:#1f77b4;" x="60.637061" xlink:href="#mb5615ee1f9" y="280.240992"/>
     <use style="fill:#1f77b4;stroke:#1f77b4;" x="252.507969" xlink:href="#mb5615ee1f9" y="272.151187"/>
     <use style="fill:#1f77b4;stroke:#1f77b4;" x="243.294587" xlink:href="#mb5615ee1f9" y="278.990266"/>
     <use style="fill:#1f77b4;stroke:#1f77b4;" x="68.280813" xlink:href="#mb5615ee1f9" y="280.85305"/>
     <use style="fill:#1f77b4;stroke:#1f77b4;" x="164.712803" xlink:href="#mb5615ee1f9" y="288.277574"/>
     <use style="fill:#1f77b4;stroke:#1f77b4;" x="369.09833" xlink:href="#mb5615ee1f9" y="217.518394"/>
     <use style="fill:#1f77b4;stroke:#1f77b4;" x="234.441795" xlink:href="#mb5615ee1f9" y="292.601894"/>
     <use style="fill:#1f77b4;stroke:#1f77b4;" x="321.043348" xlink:href="#mb5615ee1f9" y="249.318778"/>
     <use style="fill:#1f77b4;stroke:#1f77b4;" x="144.438733" xlink:href="#mb5615ee1f9" y="275.65056"/>
     <use style="fill:#1f77b4;stroke:#1f77b4;" x="144.380884" xlink:href="#mb5615ee1f9" y="275.65056"/>
     <use style="fill:#1f77b4;stroke:#1f77b4;" x="511.80356" xlink:href="#mb5615ee1f9" y="275.144947"/>
     <use style="fill:#1f77b4;stroke:#1f77b4;" x="98.689989" xlink:href="#mb5615ee1f9" y="275.610643"/>
     <use style="fill:#1f77b4;stroke:#1f77b4;" x="267.897673" xlink:href="#mb5615ee1f9" y="267.653894"/>
     <use style="fill:#1f77b4;stroke:#1f77b4;" x="219.70771" xlink:href="#mb5615ee1f9" y="303.352819"/>
     <use style="fill:#1f77b4;stroke:#1f77b4;" x="166.315214" xlink:href="#mb5615ee1f9" y="212.582016"/>
     <use style="fill:#1f77b4;stroke:#1f77b4;" x="256.767568" xlink:href="#mb5615ee1f9" y="278.97696"/>
     <use style="fill:#1f77b4;stroke:#1f77b4;" x="160.998911" xlink:href="#mb5615ee1f9" y="224.290944"/>
     <use style="fill:#1f77b4;stroke:#1f77b4;" x="118.321937" xlink:href="#mb5615ee1f9" y="303.459264"/>
     <use style="fill:#1f77b4;stroke:#1f77b4;" x="93.022737" xlink:href="#mb5615ee1f9" y="269.463456"/>
     <use style="fill:#1f77b4;stroke:#1f77b4;" x="144.172629" xlink:href="#mb5615ee1f9" y="264.114605"/>
     <use style="fill:#1f77b4;stroke:#1f77b4;" x="115.859918" xlink:href="#mb5615ee1f9" y="-1"/>
     <use style="fill:#1f77b4;stroke:#1f77b4;" x="157.853395" xlink:href="#mb5615ee1f9" y="-1"/>
     <use style="fill:#1f77b4;stroke:#1f77b4;" x="209.395201" xlink:href="#mb5615ee1f9" y="278.19193"/>
     <use style="fill:#1f77b4;stroke:#1f77b4;" x="227.974301" xlink:href="#mb5615ee1f9" y="249.092582"/>
     <use style="fill:#1f77b4;stroke:#1f77b4;" x="193.882086" xlink:href="#mb5615ee1f9" y="255.931661"/>
     <use style="fill:#1f77b4;stroke:#1f77b4;" x="389.561372" xlink:href="#mb5615ee1f9" y="255.599021"/>
     <use style="fill:#1f77b4;stroke:#1f77b4;" x="432.145788" xlink:href="#mb5615ee1f9" y="239.446022"/>
     <use style="fill:#1f77b4;stroke:#1f77b4;" x="119.945559" xlink:href="#mb5615ee1f9" y="300.119558"/>
     <use style="fill:#1f77b4;stroke:#1f77b4;" x="177.850261" xlink:href="#mb5615ee1f9" y="225.08928"/>
     <use style="fill:#1f77b4;stroke:#1f77b4;" x="251.700014" xlink:href="#mb5615ee1f9" y="230.052269"/>
     <use style="fill:#1f77b4;stroke:#1f77b4;" x="171.909191" xlink:href="#mb5615ee1f9" y="275.051808"/>
     <use style="fill:#1f77b4;stroke:#1f77b4;" x="136.875969" xlink:href="#mb5615ee1f9" y="277.247232"/>
     <use style="fill:#1f77b4;stroke:#1f77b4;" x="121.958697" xlink:href="#mb5615ee1f9" y="303.179846"/>
     <use style="fill:#1f77b4;stroke:#1f77b4;" x="235.107056" xlink:href="#mb5615ee1f9" y="278.803987"/>
     <use style="fill:#1f77b4;stroke:#1f77b4;" x="274.997647" xlink:href="#mb5615ee1f9" y="281.332051"/>
     <use style="fill:#1f77b4;stroke:#1f77b4;" x="160.370287" xlink:href="#mb5615ee1f9" y="303.006874"/>
     <use style="fill:#1f77b4;stroke:#1f77b4;" x="477.294833" xlink:href="#mb5615ee1f9" y="302.887123"/>
     <use style="fill:#1f77b4;stroke:#1f77b4;" x="222.602078" xlink:href="#mb5615ee1f9" y="294.650957"/>
     <use style="fill:#1f77b4;stroke:#1f77b4;" x="248.392992" xlink:href="#mb5615ee1f9" y="302.008954"/>
     <use style="fill:#1f77b4;stroke:#1f77b4;" x="532.893297" xlink:href="#mb5615ee1f9" y="277.327066"/>
     <use style="fill:#1f77b4;stroke:#1f77b4;" x="220.552303" xlink:href="#mb5615ee1f9" y="294.650957"/>
     <use style="fill:#1f77b4;stroke:#1f77b4;" x="240.346227" xlink:href="#mb5615ee1f9" y="301.117478"/>
     <use style="fill:#1f77b4;stroke:#1f77b4;" x="175.121727" xlink:href="#mb5615ee1f9" y="302.501261"/>
     <use style="fill:#1f77b4;stroke:#1f77b4;" x="81.857922" xlink:href="#mb5615ee1f9" y="302.314982"/>
     <use style="fill:#1f77b4;stroke:#1f77b4;" x="77.035262" xlink:href="#mb5615ee1f9" y="302.487955"/>
     <use style="fill:#1f77b4;stroke:#1f77b4;" x="241.418358" xlink:href="#mb5615ee1f9" y="298.070496"/>
     <use style="fill:#1f77b4;stroke:#1f77b4;" x="283.212174" xlink:href="#mb5615ee1f9" y="279.64224"/>
     <use style="fill:#1f77b4;stroke:#1f77b4;" x="154.006922" xlink:href="#mb5615ee1f9" y="303.618931"/>
     <use style="fill:#1f77b4;stroke:#1f77b4;" x="85.018394" xlink:href="#mb5615ee1f9" y="302.408122"/>
     <use style="fill:#1f77b4;stroke:#1f77b4;" x="81.520471" xlink:href="#mb5615ee1f9" y="303.605626"/>
     <use style="fill:#1f77b4;stroke:#1f77b4;" x="298.810133" xlink:href="#mb5615ee1f9" y="262.185293"/>
     <use style="fill:#1f77b4;stroke:#1f77b4;" x="162.381497" xlink:href="#mb5615ee1f9" y="281.478413"/>
     <use style="fill:#1f77b4;stroke:#1f77b4;" x="137.907606" xlink:href="#mb5615ee1f9" y="277.965734"/>
     <use style="fill:#1f77b4;stroke:#1f77b4;" x="58.353962" xlink:href="#mb5615ee1f9" y="255.825216"/>
     <use style="fill:#1f77b4;stroke:#1f77b4;" x="165.690447" xlink:href="#mb5615ee1f9" y="300.079642"/>
     <use style="fill:#1f77b4;stroke:#1f77b4;" x="264.744915" xlink:href="#mb5615ee1f9" y="282.023942"/>
     <use style="fill:#1f77b4;stroke:#1f77b4;" x="274.338171" xlink:href="#mb5615ee1f9" y="282.023942"/>
     <use style="fill:#1f77b4;stroke:#1f77b4;" x="341.884335" xlink:href="#mb5615ee1f9" y="282.023942"/>
     <use style="fill:#1f77b4;stroke:#1f77b4;" x="264.465312" xlink:href="#mb5615ee1f9" y="282.023942"/>
     <use style="fill:#1f77b4;stroke:#1f77b4;" x="139.340327" xlink:href="#mb5615ee1f9" y="304.191072"/>
     <use style="fill:#1f77b4;stroke:#1f77b4;" x="181.14957" xlink:href="#mb5615ee1f9" y="303.246374"/>
     <use style="fill:#1f77b4;stroke:#1f77b4;" x="144.861029" xlink:href="#mb5615ee1f9" y="274.027277"/>
     <use style="fill:#1f77b4;stroke:#1f77b4;" x="74.385788" xlink:href="#mb5615ee1f9" y="302.780678"/>
     <use style="fill:#1f77b4;stroke:#1f77b4;" x="338.721935" xlink:href="#mb5615ee1f9" y="196.48224"/>
     <use style="fill:#1f77b4;stroke:#1f77b4;" x="201.051478" xlink:href="#mb5615ee1f9" y="279.97488"/>
     <use style="fill:#1f77b4;stroke:#1f77b4;" x="84.719508" xlink:href="#mb5615ee1f9" y="291.61728"/>
     <use style="fill:#1f77b4;stroke:#1f77b4;" x="228.467944" xlink:href="#mb5615ee1f9" y="279.549101"/>
     <use style="fill:#1f77b4;stroke:#1f77b4;" x="132.500673" xlink:href="#mb5615ee1f9" y="279.416045"/>
     <use style="fill:#1f77b4;stroke:#1f77b4;" x="354.589856" xlink:href="#mb5615ee1f9" y="83.650752"/>
     <use style="fill:#1f77b4;stroke:#1f77b4;" x="280.984045" xlink:href="#mb5615ee1f9" y="-1"/>
     <use style="fill:#1f77b4;stroke:#1f77b4;" x="489.401576" xlink:href="#mb5615ee1f9" y="-1"/>
     <use style="fill:#1f77b4;stroke:#1f77b4;" x="974.296849" xlink:href="#mb5615ee1f9" y="287.492544"/>
     <use style="fill:#1f77b4;stroke:#1f77b4;" x="118.526336" xlink:href="#mb5615ee1f9" y="304.191072"/>
     <use style="fill:#1f77b4;stroke:#1f77b4;" x="166.10503" xlink:href="#mb5615ee1f9" y="300.9312"/>
     <use style="fill:#1f77b4;stroke:#1f77b4;" x="93.26763" xlink:href="#mb5615ee1f9" y="216.507168"/>
     <use style="fill:#1f77b4;stroke:#1f77b4;" x="57.862248" xlink:href="#mb5615ee1f9" y="267.6672"/>
     <use style="fill:#1f77b4;stroke:#1f77b4;" x="170.59988" xlink:href="#mb5615ee1f9" y="288.676742"/>
     <use style="fill:#1f77b4;stroke:#1f77b4;" x="248.620531" xlink:href="#mb5615ee1f9" y="305.002714"/>
     <use style="fill:#1f77b4;stroke:#1f77b4;" x="133.582445" xlink:href="#mb5615ee1f9" y="273.947443"/>
     <use style="fill:#1f77b4;stroke:#1f77b4;" x="123.779005" xlink:href="#mb5615ee1f9" y="292.28256"/>
     <use style="fill:#1f77b4;stroke:#1f77b4;" x="117.668246" xlink:href="#mb5615ee1f9" y="273.947443"/>
     <use style="fill:#1f77b4;stroke:#1f77b4;" x="58.267189" xlink:href="#mb5615ee1f9" y="224.823168"/>
     <use style="fill:#1f77b4;stroke:#1f77b4;" x="294.722153" xlink:href="#mb5615ee1f9" y="289.661357"/>
     <use style="fill:#1f77b4;stroke:#1f77b4;" x="257.232286" xlink:href="#mb5615ee1f9" y="305.508326"/>
     <use style="fill:#1f77b4;stroke:#1f77b4;" x="150.838737" xlink:href="#mb5615ee1f9" y="264.367411"/>
     <use style="fill:#1f77b4;stroke:#1f77b4;" x="102.789539" xlink:href="#mb5615ee1f9" y="303.59232"/>
     <use style="fill:#1f77b4;stroke:#1f77b4;" x="100.433166" xlink:href="#mb5615ee1f9" y="303.59232"/>
     <use style="fill:#1f77b4;stroke:#1f77b4;" x="261.864045" xlink:href="#mb5615ee1f9" y="303.791904"/>
     <use style="fill:#1f77b4;stroke:#1f77b4;" x="67.185543" xlink:href="#mb5615ee1f9" y="300.9312"/>
     <use style="fill:#1f77b4;stroke:#1f77b4;" x="57.82561" xlink:href="#mb5615ee1f9" y="210.45312"/>
     <use style="fill:#1f77b4;stroke:#1f77b4;" x="127.276928" xlink:href="#mb5615ee1f9" y="304.417267"/>
     <use style="fill:#1f77b4;stroke:#1f77b4;" x="235.560205" xlink:href="#mb5615ee1f9" y="306.120384"/>
     <use style="fill:#1f77b4;stroke:#1f77b4;" x="232.170266" xlink:href="#mb5615ee1f9" y="292.921229"/>
     <use style="fill:#1f77b4;stroke:#1f77b4;" x="82.399772" xlink:href="#mb5615ee1f9" y="286.388179"/>
     <use style="fill:#1f77b4;stroke:#1f77b4;" x="221.977311" xlink:href="#mb5615ee1f9" y="306.027245"/>
    </g>
   </g>
   <g id="matplotlib.axis_1">
    <g id="xtick_1">
     <g id="line2d_1">
      <defs>
       <path d="M 0 0 
L 0 3.5 
" id="mbd8a1bd7cb" style="stroke:#000000;stroke-width:0.8;"/>
      </defs>
      <g>
       <use style="stroke:#000000;stroke-width:0.8;" x="57.6" xlink:href="#mbd8a1bd7cb" y="307.584"/>
      </g>
     </g>
     <g id="text_1">
      <!-- 0 -->
      <g transform="translate(54.41875 322.182437)scale(0.1 -0.1)">
       <defs>
        <path d="M 31.78125 66.40625 
Q 24.171875 66.40625 20.328125 58.90625 
Q 16.5 51.421875 16.5 36.375 
Q 16.5 21.390625 20.328125 13.890625 
Q 24.171875 6.390625 31.78125 6.390625 
Q 39.453125 6.390625 43.28125 13.890625 
Q 47.125 21.390625 47.125 36.375 
Q 47.125 51.421875 43.28125 58.90625 
Q 39.453125 66.40625 31.78125 66.40625 
z
M 31.78125 74.21875 
Q 44.046875 74.21875 50.515625 64.515625 
Q 56.984375 54.828125 56.984375 36.375 
Q 56.984375 17.96875 50.515625 8.265625 
Q 44.046875 -1.421875 31.78125 -1.421875 
Q 19.53125 -1.421875 13.0625 8.265625 
Q 6.59375 17.96875 6.59375 36.375 
Q 6.59375 54.828125 13.0625 64.515625 
Q 19.53125 74.21875 31.78125 74.21875 
z
" id="DejaVuSans-48"/>
       </defs>
       <use xlink:href="#DejaVuSans-48"/>
      </g>
     </g>
    </g>
    <g id="xtick_2">
     <g id="line2d_2">
      <g>
       <use style="stroke:#000000;stroke-width:0.8;" x="129.024" xlink:href="#mbd8a1bd7cb" y="307.584"/>
      </g>
     </g>
     <g id="text_2">
      <!-- 200 -->
      <g transform="translate(119.48025 322.182437)scale(0.1 -0.1)">
       <defs>
        <path d="M 19.1875 8.296875 
L 53.609375 8.296875 
L 53.609375 0 
L 7.328125 0 
L 7.328125 8.296875 
Q 12.9375 14.109375 22.625 23.890625 
Q 32.328125 33.6875 34.8125 36.53125 
Q 39.546875 41.84375 41.421875 45.53125 
Q 43.3125 49.21875 43.3125 52.78125 
Q 43.3125 58.59375 39.234375 62.25 
Q 35.15625 65.921875 28.609375 65.921875 
Q 23.96875 65.921875 18.8125 64.3125 
Q 13.671875 62.703125 7.8125 59.421875 
L 7.8125 69.390625 
Q 13.765625 71.78125 18.9375 73 
Q 24.125 74.21875 28.421875 74.21875 
Q 39.75 74.21875 46.484375 68.546875 
Q 53.21875 62.890625 53.21875 53.421875 
Q 53.21875 48.921875 51.53125 44.890625 
Q 49.859375 40.875 45.40625 35.40625 
Q 44.1875 33.984375 37.640625 27.21875 
Q 31.109375 20.453125 19.1875 8.296875 
z
" id="DejaVuSans-50"/>
       </defs>
       <use xlink:href="#DejaVuSans-50"/>
       <use x="63.623047" xlink:href="#DejaVuSans-48"/>
       <use x="127.246094" xlink:href="#DejaVuSans-48"/>
      </g>
     </g>
    </g>
    <g id="xtick_3">
     <g id="line2d_3">
      <g>
       <use style="stroke:#000000;stroke-width:0.8;" x="200.448" xlink:href="#mbd8a1bd7cb" y="307.584"/>
      </g>
     </g>
     <g id="text_3">
      <!-- 400 -->
      <g transform="translate(190.90425 322.182437)scale(0.1 -0.1)">
       <defs>
        <path d="M 37.796875 64.3125 
L 12.890625 25.390625 
L 37.796875 25.390625 
z
M 35.203125 72.90625 
L 47.609375 72.90625 
L 47.609375 25.390625 
L 58.015625 25.390625 
L 58.015625 17.1875 
L 47.609375 17.1875 
L 47.609375 0 
L 37.796875 0 
L 37.796875 17.1875 
L 4.890625 17.1875 
L 4.890625 26.703125 
z
" id="DejaVuSans-52"/>
       </defs>
       <use xlink:href="#DejaVuSans-52"/>
       <use x="63.623047" xlink:href="#DejaVuSans-48"/>
       <use x="127.246094" xlink:href="#DejaVuSans-48"/>
      </g>
     </g>
    </g>
    <g id="xtick_4">
     <g id="line2d_4">
      <g>
       <use style="stroke:#000000;stroke-width:0.8;" x="271.872" xlink:href="#mbd8a1bd7cb" y="307.584"/>
      </g>
     </g>
     <g id="text_4">
      <!-- 600 -->
      <g transform="translate(262.32825 322.182437)scale(0.1 -0.1)">
       <defs>
        <path d="M 33.015625 40.375 
Q 26.375 40.375 22.484375 35.828125 
Q 18.609375 31.296875 18.609375 23.390625 
Q 18.609375 15.53125 22.484375 10.953125 
Q 26.375 6.390625 33.015625 6.390625 
Q 39.65625 6.390625 43.53125 10.953125 
Q 47.40625 15.53125 47.40625 23.390625 
Q 47.40625 31.296875 43.53125 35.828125 
Q 39.65625 40.375 33.015625 40.375 
z
M 52.59375 71.296875 
L 52.59375 62.3125 
Q 48.875 64.0625 45.09375 64.984375 
Q 41.3125 65.921875 37.59375 65.921875 
Q 27.828125 65.921875 22.671875 59.328125 
Q 17.53125 52.734375 16.796875 39.40625 
Q 19.671875 43.65625 24.015625 45.921875 
Q 28.375 48.1875 33.59375 48.1875 
Q 44.578125 48.1875 50.953125 41.515625 
Q 57.328125 34.859375 57.328125 23.390625 
Q 57.328125 12.15625 50.6875 5.359375 
Q 44.046875 -1.421875 33.015625 -1.421875 
Q 20.359375 -1.421875 13.671875 8.265625 
Q 6.984375 17.96875 6.984375 36.375 
Q 6.984375 53.65625 15.1875 63.9375 
Q 23.390625 74.21875 37.203125 74.21875 
Q 40.921875 74.21875 44.703125 73.484375 
Q 48.484375 72.75 52.59375 71.296875 
z
" id="DejaVuSans-54"/>
       </defs>
       <use xlink:href="#DejaVuSans-54"/>
       <use x="63.623047" xlink:href="#DejaVuSans-48"/>
       <use x="127.246094" xlink:href="#DejaVuSans-48"/>
      </g>
     </g>
    </g>
    <g id="xtick_5">
     <g id="line2d_5">
      <g>
       <use style="stroke:#000000;stroke-width:0.8;" x="343.296" xlink:href="#mbd8a1bd7cb" y="307.584"/>
      </g>
     </g>
     <g id="text_5">
      <!-- 800 -->
      <g transform="translate(333.75225 322.182437)scale(0.1 -0.1)">
       <defs>
        <path d="M 31.78125 34.625 
Q 24.75 34.625 20.71875 30.859375 
Q 16.703125 27.09375 16.703125 20.515625 
Q 16.703125 13.921875 20.71875 10.15625 
Q 24.75 6.390625 31.78125 6.390625 
Q 38.8125 6.390625 42.859375 10.171875 
Q 46.921875 13.96875 46.921875 20.515625 
Q 46.921875 27.09375 42.890625 30.859375 
Q 38.875 34.625 31.78125 34.625 
z
M 21.921875 38.8125 
Q 15.578125 40.375 12.03125 44.71875 
Q 8.5 49.078125 8.5 55.328125 
Q 8.5 64.0625 14.71875 69.140625 
Q 20.953125 74.21875 31.78125 74.21875 
Q 42.671875 74.21875 48.875 69.140625 
Q 55.078125 64.0625 55.078125 55.328125 
Q 55.078125 49.078125 51.53125 44.71875 
Q 48 40.375 41.703125 38.8125 
Q 48.828125 37.15625 52.796875 32.3125 
Q 56.78125 27.484375 56.78125 20.515625 
Q 56.78125 9.90625 50.3125 4.234375 
Q 43.84375 -1.421875 31.78125 -1.421875 
Q 19.734375 -1.421875 13.25 4.234375 
Q 6.78125 9.90625 6.78125 20.515625 
Q 6.78125 27.484375 10.78125 32.3125 
Q 14.796875 37.15625 21.921875 38.8125 
z
M 18.3125 54.390625 
Q 18.3125 48.734375 21.84375 45.5625 
Q 25.390625 42.390625 31.78125 42.390625 
Q 38.140625 42.390625 41.71875 45.5625 
Q 45.3125 48.734375 45.3125 54.390625 
Q 45.3125 60.0625 41.71875 63.234375 
Q 38.140625 66.40625 31.78125 66.40625 
Q 25.390625 66.40625 21.84375 63.234375 
Q 18.3125 60.0625 18.3125 54.390625 
z
" id="DejaVuSans-56"/>
       </defs>
       <use xlink:href="#DejaVuSans-56"/>
       <use x="63.623047" xlink:href="#DejaVuSans-48"/>
       <use x="127.246094" xlink:href="#DejaVuSans-48"/>
      </g>
     </g>
    </g>
    <g id="xtick_6">
     <g id="line2d_6">
      <g>
       <use style="stroke:#000000;stroke-width:0.8;" x="414.72" xlink:href="#mbd8a1bd7cb" y="307.584"/>
      </g>
     </g>
     <g id="text_6">
      <!-- 1000 -->
      <g transform="translate(401.995 322.182437)scale(0.1 -0.1)">
       <defs>
        <path d="M 12.40625 8.296875 
L 28.515625 8.296875 
L 28.515625 63.921875 
L 10.984375 60.40625 
L 10.984375 69.390625 
L 28.421875 72.90625 
L 38.28125 72.90625 
L 38.28125 8.296875 
L 54.390625 8.296875 
L 54.390625 0 
L 12.40625 0 
z
" id="DejaVuSans-49"/>
       </defs>
       <use xlink:href="#DejaVuSans-49"/>
       <use x="63.623047" xlink:href="#DejaVuSans-48"/>
       <use x="127.246094" xlink:href="#DejaVuSans-48"/>
       <use x="190.869141" xlink:href="#DejaVuSans-48"/>
      </g>
     </g>
    </g>
    <g id="text_7">
     <!-- Average emissions reported - gCO₂/km/person -->
     <g transform="translate(120.300625 335.860562)scale(0.1 -0.1)">
      <defs>
       <path d="M 34.1875 63.1875 
L 20.796875 26.90625 
L 47.609375 26.90625 
z
M 28.609375 72.90625 
L 39.796875 72.90625 
L 67.578125 0 
L 57.328125 0 
L 50.6875 18.703125 
L 17.828125 18.703125 
L 11.1875 0 
L 0.78125 0 
z
" id="DejaVuSans-65"/>
       <path d="M 2.984375 54.6875 
L 12.5 54.6875 
L 29.59375 8.796875 
L 46.6875 54.6875 
L 56.203125 54.6875 
L 35.6875 0 
L 23.484375 0 
z
" id="DejaVuSans-118"/>
       <path d="M 56.203125 29.59375 
L 56.203125 25.203125 
L 14.890625 25.203125 
Q 15.484375 15.921875 20.484375 11.0625 
Q 25.484375 6.203125 34.421875 6.203125 
Q 39.59375 6.203125 44.453125 7.46875 
Q 49.3125 8.734375 54.109375 11.28125 
L 54.109375 2.78125 
Q 49.265625 0.734375 44.1875 -0.34375 
Q 39.109375 -1.421875 33.890625 -1.421875 
Q 20.796875 -1.421875 13.15625 6.1875 
Q 5.515625 13.8125 5.515625 26.8125 
Q 5.515625 40.234375 12.765625 48.109375 
Q 20.015625 56 32.328125 56 
Q 43.359375 56 49.78125 48.890625 
Q 56.203125 41.796875 56.203125 29.59375 
z
M 47.21875 32.234375 
Q 47.125 39.59375 43.09375 43.984375 
Q 39.0625 48.390625 32.421875 48.390625 
Q 24.90625 48.390625 20.390625 44.140625 
Q 15.875 39.890625 15.1875 32.171875 
z
" id="DejaVuSans-101"/>
       <path d="M 41.109375 46.296875 
Q 39.59375 47.171875 37.8125 47.578125 
Q 36.03125 48 33.890625 48 
Q 26.265625 48 22.1875 43.046875 
Q 18.109375 38.09375 18.109375 28.8125 
L 18.109375 0 
L 9.078125 0 
L 9.078125 54.6875 
L 18.109375 54.6875 
L 18.109375 46.1875 
Q 20.953125 51.171875 25.484375 53.578125 
Q 30.03125 56 36.53125 56 
Q 37.453125 56 38.578125 55.875 
Q 39.703125 55.765625 41.0625 55.515625 
z
" id="DejaVuSans-114"/>
       <path d="M 34.28125 27.484375 
Q 23.390625 27.484375 19.1875 25 
Q 14.984375 22.515625 14.984375 16.5 
Q 14.984375 11.71875 18.140625 8.90625 
Q 21.296875 6.109375 26.703125 6.109375 
Q 34.1875 6.109375 38.703125 11.40625 
Q 43.21875 16.703125 43.21875 25.484375 
L 43.21875 27.484375 
z
M 52.203125 31.203125 
L 52.203125 0 
L 43.21875 0 
L 43.21875 8.296875 
Q 40.140625 3.328125 35.546875 0.953125 
Q 30.953125 -1.421875 24.3125 -1.421875 
Q 15.921875 -1.421875 10.953125 3.296875 
Q 6 8.015625 6 15.921875 
Q 6 25.140625 12.171875 29.828125 
Q 18.359375 34.515625 30.609375 34.515625 
L 43.21875 34.515625 
L 43.21875 35.40625 
Q 43.21875 41.609375 39.140625 45 
Q 35.0625 48.390625 27.6875 48.390625 
Q 23 48.390625 18.546875 47.265625 
Q 14.109375 46.140625 10.015625 43.890625 
L 10.015625 52.203125 
Q 14.9375 54.109375 19.578125 55.046875 
Q 24.21875 56 28.609375 56 
Q 40.484375 56 46.34375 49.84375 
Q 52.203125 43.703125 52.203125 31.203125 
z
" id="DejaVuSans-97"/>
       <path d="M 45.40625 27.984375 
Q 45.40625 37.75 41.375 43.109375 
Q 37.359375 48.484375 30.078125 48.484375 
Q 22.859375 48.484375 18.828125 43.109375 
Q 14.796875 37.75 14.796875 27.984375 
Q 14.796875 18.265625 18.828125 12.890625 
Q 22.859375 7.515625 30.078125 7.515625 
Q 37.359375 7.515625 41.375 12.890625 
Q 45.40625 18.265625 45.40625 27.984375 
z
M 54.390625 6.78125 
Q 54.390625 -7.171875 48.1875 -13.984375 
Q 42 -20.796875 29.203125 -20.796875 
Q 24.46875 -20.796875 20.265625 -20.09375 
Q 16.0625 -19.390625 12.109375 -17.921875 
L 12.109375 -9.1875 
Q 16.0625 -11.328125 19.921875 -12.34375 
Q 23.78125 -13.375 27.78125 -13.375 
Q 36.625 -13.375 41.015625 -8.765625 
Q 45.40625 -4.15625 45.40625 5.171875 
L 45.40625 9.625 
Q 42.625 4.78125 38.28125 2.390625 
Q 33.9375 0 27.875 0 
Q 17.828125 0 11.671875 7.65625 
Q 5.515625 15.328125 5.515625 27.984375 
Q 5.515625 40.671875 11.671875 48.328125 
Q 17.828125 56 27.875 56 
Q 33.9375 56 38.28125 53.609375 
Q 42.625 51.21875 45.40625 46.390625 
L 45.40625 54.6875 
L 54.390625 54.6875 
z
" id="DejaVuSans-103"/>
       <path id="DejaVuSans-32"/>
       <path d="M 52 44.1875 
Q 55.375 50.25 60.0625 53.125 
Q 64.75 56 71.09375 56 
Q 79.640625 56 84.28125 50.015625 
Q 88.921875 44.046875 88.921875 33.015625 
L 88.921875 0 
L 79.890625 0 
L 79.890625 32.71875 
Q 79.890625 40.578125 77.09375 44.375 
Q 74.3125 48.1875 68.609375 48.1875 
Q 61.625 48.1875 57.5625 43.546875 
Q 53.515625 38.921875 53.515625 30.90625 
L 53.515625 0 
L 44.484375 0 
L 44.484375 32.71875 
Q 44.484375 40.625 41.703125 44.40625 
Q 38.921875 48.1875 33.109375 48.1875 
Q 26.21875 48.1875 22.15625 43.53125 
Q 18.109375 38.875 18.109375 30.90625 
L 18.109375 0 
L 9.078125 0 
L 9.078125 54.6875 
L 18.109375 54.6875 
L 18.109375 46.1875 
Q 21.1875 51.21875 25.484375 53.609375 
Q 29.78125 56 35.6875 56 
Q 41.65625 56 45.828125 52.96875 
Q 50 49.953125 52 44.1875 
z
" id="DejaVuSans-109"/>
       <path d="M 9.421875 54.6875 
L 18.40625 54.6875 
L 18.40625 0 
L 9.421875 0 
z
M 9.421875 75.984375 
L 18.40625 75.984375 
L 18.40625 64.59375 
L 9.421875 64.59375 
z
" id="DejaVuSans-105"/>
       <path d="M 44.28125 53.078125 
L 44.28125 44.578125 
Q 40.484375 46.53125 36.375 47.5 
Q 32.28125 48.484375 27.875 48.484375 
Q 21.1875 48.484375 17.84375 46.4375 
Q 14.5 44.390625 14.5 40.28125 
Q 14.5 37.15625 16.890625 35.375 
Q 19.28125 33.59375 26.515625 31.984375 
L 29.59375 31.296875 
Q 39.15625 29.25 43.1875 25.515625 
Q 47.21875 21.78125 47.21875 15.09375 
Q 47.21875 7.46875 41.1875 3.015625 
Q 35.15625 -1.421875 24.609375 -1.421875 
Q 20.21875 -1.421875 15.453125 -0.5625 
Q 10.6875 0.296875 5.421875 2 
L 5.421875 11.28125 
Q 10.40625 8.6875 15.234375 7.390625 
Q 20.0625 6.109375 24.8125 6.109375 
Q 31.15625 6.109375 34.5625 8.28125 
Q 37.984375 10.453125 37.984375 14.40625 
Q 37.984375 18.0625 35.515625 20.015625 
Q 33.0625 21.96875 24.703125 23.78125 
L 21.578125 24.515625 
Q 13.234375 26.265625 9.515625 29.90625 
Q 5.8125 33.546875 5.8125 39.890625 
Q 5.8125 47.609375 11.28125 51.796875 
Q 16.75 56 26.8125 56 
Q 31.78125 56 36.171875 55.265625 
Q 40.578125 54.546875 44.28125 53.078125 
z
" id="DejaVuSans-115"/>
       <path d="M 30.609375 48.390625 
Q 23.390625 48.390625 19.1875 42.75 
Q 14.984375 37.109375 14.984375 27.296875 
Q 14.984375 17.484375 19.15625 11.84375 
Q 23.34375 6.203125 30.609375 6.203125 
Q 37.796875 6.203125 41.984375 11.859375 
Q 46.1875 17.53125 46.1875 27.296875 
Q 46.1875 37.015625 41.984375 42.703125 
Q 37.796875 48.390625 30.609375 48.390625 
z
M 30.609375 56 
Q 42.328125 56 49.015625 48.375 
Q 55.71875 40.765625 55.71875 27.296875 
Q 55.71875 13.875 49.015625 6.21875 
Q 42.328125 -1.421875 30.609375 -1.421875 
Q 18.84375 -1.421875 12.171875 6.21875 
Q 5.515625 13.875 5.515625 27.296875 
Q 5.515625 40.765625 12.171875 48.375 
Q 18.84375 56 30.609375 56 
z
" id="DejaVuSans-111"/>
       <path d="M 54.890625 33.015625 
L 54.890625 0 
L 45.90625 0 
L 45.90625 32.71875 
Q 45.90625 40.484375 42.875 44.328125 
Q 39.84375 48.1875 33.796875 48.1875 
Q 26.515625 48.1875 22.3125 43.546875 
Q 18.109375 38.921875 18.109375 30.90625 
L 18.109375 0 
L 9.078125 0 
L 9.078125 54.6875 
L 18.109375 54.6875 
L 18.109375 46.1875 
Q 21.34375 51.125 25.703125 53.5625 
Q 30.078125 56 35.796875 56 
Q 45.21875 56 50.046875 50.171875 
Q 54.890625 44.34375 54.890625 33.015625 
z
" id="DejaVuSans-110"/>
       <path d="M 18.109375 8.203125 
L 18.109375 -20.796875 
L 9.078125 -20.796875 
L 9.078125 54.6875 
L 18.109375 54.6875 
L 18.109375 46.390625 
Q 20.953125 51.265625 25.265625 53.625 
Q 29.59375 56 35.59375 56 
Q 45.5625 56 51.78125 48.09375 
Q 58.015625 40.1875 58.015625 27.296875 
Q 58.015625 14.40625 51.78125 6.484375 
Q 45.5625 -1.421875 35.59375 -1.421875 
Q 29.59375 -1.421875 25.265625 0.953125 
Q 20.953125 3.328125 18.109375 8.203125 
z
M 48.6875 27.296875 
Q 48.6875 37.203125 44.609375 42.84375 
Q 40.53125 48.484375 33.40625 48.484375 
Q 26.265625 48.484375 22.1875 42.84375 
Q 18.109375 37.203125 18.109375 27.296875 
Q 18.109375 17.390625 22.1875 11.75 
Q 26.265625 6.109375 33.40625 6.109375 
Q 40.53125 6.109375 44.609375 11.75 
Q 48.6875 17.390625 48.6875 27.296875 
z
" id="DejaVuSans-112"/>
       <path d="M 18.3125 70.21875 
L 18.3125 54.6875 
L 36.8125 54.6875 
L 36.8125 47.703125 
L 18.3125 47.703125 
L 18.3125 18.015625 
Q 18.3125 11.328125 20.140625 9.421875 
Q 21.96875 7.515625 27.59375 7.515625 
L 36.8125 7.515625 
L 36.8125 0 
L 27.59375 0 
Q 17.1875 0 13.234375 3.875 
Q 9.28125 7.765625 9.28125 18.015625 
L 9.28125 47.703125 
L 2.6875 47.703125 
L 2.6875 54.6875 
L 9.28125 54.6875 
L 9.28125 70.21875 
z
" id="DejaVuSans-116"/>
       <path d="M 45.40625 46.390625 
L 45.40625 75.984375 
L 54.390625 75.984375 
L 54.390625 0 
L 45.40625 0 
L 45.40625 8.203125 
Q 42.578125 3.328125 38.25 0.953125 
Q 33.9375 -1.421875 27.875 -1.421875 
Q 17.96875 -1.421875 11.734375 6.484375 
Q 5.515625 14.40625 5.515625 27.296875 
Q 5.515625 40.1875 11.734375 48.09375 
Q 17.96875 56 27.875 56 
Q 33.9375 56 38.25 53.625 
Q 42.578125 51.265625 45.40625 46.390625 
z
M 14.796875 27.296875 
Q 14.796875 17.390625 18.875 11.75 
Q 22.953125 6.109375 30.078125 6.109375 
Q 37.203125 6.109375 41.296875 11.75 
Q 45.40625 17.390625 45.40625 27.296875 
Q 45.40625 37.203125 41.296875 42.84375 
Q 37.203125 48.484375 30.078125 48.484375 
Q 22.953125 48.484375 18.875 42.84375 
Q 14.796875 37.203125 14.796875 27.296875 
z
" id="DejaVuSans-100"/>
       <path d="M 4.890625 31.390625 
L 31.203125 31.390625 
L 31.203125 23.390625 
L 4.890625 23.390625 
z
" id="DejaVuSans-45"/>
       <path d="M 64.40625 67.28125 
L 64.40625 56.890625 
Q 59.421875 61.53125 53.78125 63.8125 
Q 48.140625 66.109375 41.796875 66.109375 
Q 29.296875 66.109375 22.65625 58.46875 
Q 16.015625 50.828125 16.015625 36.375 
Q 16.015625 21.96875 22.65625 14.328125 
Q 29.296875 6.6875 41.796875 6.6875 
Q 48.140625 6.6875 53.78125 8.984375 
Q 59.421875 11.28125 64.40625 15.921875 
L 64.40625 5.609375 
Q 59.234375 2.09375 53.4375 0.328125 
Q 47.65625 -1.421875 41.21875 -1.421875 
Q 24.65625 -1.421875 15.125 8.703125 
Q 5.609375 18.84375 5.609375 36.375 
Q 5.609375 53.953125 15.125 64.078125 
Q 24.65625 74.21875 41.21875 74.21875 
Q 47.75 74.21875 53.53125 72.484375 
Q 59.328125 70.75 64.40625 67.28125 
z
" id="DejaVuSans-67"/>
       <path d="M 39.40625 66.21875 
Q 28.65625 66.21875 22.328125 58.203125 
Q 16.015625 50.203125 16.015625 36.375 
Q 16.015625 22.609375 22.328125 14.59375 
Q 28.65625 6.59375 39.40625 6.59375 
Q 50.140625 6.59375 56.421875 14.59375 
Q 62.703125 22.609375 62.703125 36.375 
Q 62.703125 50.203125 56.421875 58.203125 
Q 50.140625 66.21875 39.40625 66.21875 
z
M 39.40625 74.21875 
Q 54.734375 74.21875 63.90625 63.9375 
Q 73.09375 53.65625 73.09375 36.375 
Q 73.09375 19.140625 63.90625 8.859375 
Q 54.734375 -1.421875 39.40625 -1.421875 
Q 24.03125 -1.421875 14.8125 8.828125 
Q 5.609375 19.09375 5.609375 36.375 
Q 5.609375 53.65625 14.8125 63.9375 
Q 24.03125 74.21875 39.40625 74.21875 
z
" id="DejaVuSans-79"/>
       <path d="M 13.09375 5.1875 
L 33.796875 5.1875 
L 33.796875 -0.375 
L 4.59375 -0.375 
L 4.59375 4.984375 
Q 6.25 6.5 9.328125 9.234375 
Q 26.125 24.125 26.125 28.71875 
Q 26.125 31.9375 23.578125 33.90625 
Q 21.046875 35.890625 16.890625 35.890625 
Q 14.359375 35.890625 11.375 35.03125 
Q 8.40625 34.1875 4.890625 32.484375 
L 4.890625 38.484375 
Q 8.640625 39.859375 11.890625 40.53125 
Q 15.140625 41.21875 17.921875 41.21875 
Q 25 41.21875 29.25 38 
Q 33.5 34.78125 33.5 29.5 
Q 33.5 22.71875 17.328125 8.84375 
Q 14.59375 6.5 13.09375 5.1875 
z
" id="DejaVuSans-8322"/>
       <path d="M 25.390625 72.90625 
L 33.6875 72.90625 
L 8.296875 -9.28125 
L 0 -9.28125 
z
" id="DejaVuSans-47"/>
       <path d="M 9.078125 75.984375 
L 18.109375 75.984375 
L 18.109375 31.109375 
L 44.921875 54.6875 
L 56.390625 54.6875 
L 27.390625 29.109375 
L 57.625 0 
L 45.90625 0 
L 18.109375 26.703125 
L 18.109375 0 
L 9.078125 0 
z
" id="DejaVuSans-107"/>
      </defs>
      <use xlink:href="#DejaVuSans-65"/>
      <use x="62.533203" xlink:href="#DejaVuSans-118"/>
      <use x="121.712891" xlink:href="#DejaVuSans-101"/>
      <use x="183.236328" xlink:href="#DejaVuSans-114"/>
      <use x="224.349609" xlink:href="#DejaVuSans-97"/>
      <use x="285.628906" xlink:href="#DejaVuSans-103"/>
      <use x="349.105469" xlink:href="#DejaVuSans-101"/>
      <use x="410.628906" xlink:href="#DejaVuSans-32"/>
      <use x="442.416016" xlink:href="#DejaVuSans-101"/>
      <use x="503.939453" xlink:href="#DejaVuSans-109"/>
      <use x="601.351562" xlink:href="#DejaVuSans-105"/>
      <use x="629.134766" xlink:href="#DejaVuSans-115"/>
      <use x="681.234375" xlink:href="#DejaVuSans-115"/>
      <use x="733.333984" xlink:href="#DejaVuSans-105"/>
      <use x="761.117188" xlink:href="#DejaVuSans-111"/>
      <use x="822.298828" xlink:href="#DejaVuSans-110"/>
      <use x="885.677734" xlink:href="#DejaVuSans-115"/>
      <use x="937.777344" xlink:href="#DejaVuSans-32"/>
      <use x="969.564453" xlink:href="#DejaVuSans-114"/>
      <use x="1008.427734" xlink:href="#DejaVuSans-101"/>
      <use x="1069.951172" xlink:href="#DejaVuSans-112"/>
      <use x="1133.427734" xlink:href="#DejaVuSans-111"/>
      <use x="1194.609375" xlink:href="#DejaVuSans-114"/>
      <use x="1235.722656" xlink:href="#DejaVuSans-116"/>
      <use x="1274.931641" xlink:href="#DejaVuSans-101"/>
      <use x="1336.455078" xlink:href="#DejaVuSans-100"/>
      <use x="1399.931641" xlink:href="#DejaVuSans-32"/>
      <use x="1431.71875" xlink:href="#DejaVuSans-45"/>
      <use x="1467.802734" xlink:href="#DejaVuSans-32"/>
      <use x="1499.589844" xlink:href="#DejaVuSans-103"/>
      <use x="1563.066406" xlink:href="#DejaVuSans-67"/>
      <use x="1632.890625" xlink:href="#DejaVuSans-79"/>
      <use x="1711.601562" xlink:href="#DejaVuSans-8322"/>
      <use x="1751.689453" xlink:href="#DejaVuSans-47"/>
      <use x="1785.380859" xlink:href="#DejaVuSans-107"/>
      <use x="1843.291016" xlink:href="#DejaVuSans-109"/>
      <use x="1940.703125" xlink:href="#DejaVuSans-47"/>
      <use x="1974.394531" xlink:href="#DejaVuSans-112"/>
      <use x="2037.871094" xlink:href="#DejaVuSans-101"/>
      <use x="2099.394531" xlink:href="#DejaVuSans-114"/>
      <use x="2140.507812" xlink:href="#DejaVuSans-115"/>
      <use x="2192.607422" xlink:href="#DejaVuSans-111"/>
      <use x="2253.789062" xlink:href="#DejaVuSans-110"/>
     </g>
    </g>
   </g>
   <g id="matplotlib.axis_2">
    <g id="ytick_1">
     <g id="line2d_7">
      <defs>
       <path d="M 0 0 
L -3.5 0 
" id="m7c7fdd202d" style="stroke:#000000;stroke-width:0.8;"/>
      </defs>
      <g>
       <use style="stroke:#000000;stroke-width:0.8;" x="57.6" xlink:href="#m7c7fdd202d" y="307.584"/>
      </g>
     </g>
     <g id="text_8">
      <!-- 0 -->
      <g transform="translate(44.2375 311.383219)scale(0.1 -0.1)">
       <use xlink:href="#DejaVuSans-48"/>
      </g>
     </g>
    </g>
    <g id="ytick_2">
     <g id="line2d_8">
      <g>
       <use style="stroke:#000000;stroke-width:0.8;" x="57.6" xlink:href="#m7c7fdd202d" y="274.32"/>
      </g>
     </g>
     <g id="text_9">
      <!-- 25 -->
      <g transform="translate(37.875 278.119219)scale(0.1 -0.1)">
       <defs>
        <path d="M 10.796875 72.90625 
L 49.515625 72.90625 
L 49.515625 64.59375 
L 19.828125 64.59375 
L 19.828125 46.734375 
Q 21.96875 47.46875 24.109375 47.828125 
Q 26.265625 48.1875 28.421875 48.1875 
Q 40.625 48.1875 47.75 41.5 
Q 54.890625 34.8125 54.890625 23.390625 
Q 54.890625 11.625 47.5625 5.09375 
Q 40.234375 -1.421875 26.90625 -1.421875 
Q 22.3125 -1.421875 17.546875 -0.640625 
Q 12.796875 0.140625 7.71875 1.703125 
L 7.71875 11.625 
Q 12.109375 9.234375 16.796875 8.0625 
Q 21.484375 6.890625 26.703125 6.890625 
Q 35.15625 6.890625 40.078125 11.328125 
Q 45.015625 15.765625 45.015625 23.390625 
Q 45.015625 31 40.078125 35.4375 
Q 35.15625 39.890625 26.703125 39.890625 
Q 22.75 39.890625 18.8125 39.015625 
Q 14.890625 38.140625 10.796875 36.28125 
z
" id="DejaVuSans-53"/>
       </defs>
       <use xlink:href="#DejaVuSans-50"/>
       <use x="63.623047" xlink:href="#DejaVuSans-53"/>
      </g>
     </g>
    </g>
    <g id="ytick_3">
     <g id="line2d_9">
      <g>
       <use style="stroke:#000000;stroke-width:0.8;" x="57.6" xlink:href="#m7c7fdd202d" y="241.056"/>
      </g>
     </g>
     <g id="text_10">
      <!-- 50 -->
      <g transform="translate(37.875 244.855219)scale(0.1 -0.1)">
       <use xlink:href="#DejaVuSans-53"/>
       <use x="63.623047" xlink:href="#DejaVuSans-48"/>
      </g>
     </g>
    </g>
    <g id="ytick_4">
     <g id="line2d_10">
      <g>
       <use style="stroke:#000000;stroke-width:0.8;" x="57.6" xlink:href="#m7c7fdd202d" y="207.792"/>
      </g>
     </g>
     <g id="text_11">
      <!-- 75 -->
      <g transform="translate(37.875 211.591219)scale(0.1 -0.1)">
       <defs>
        <path d="M 8.203125 72.90625 
L 55.078125 72.90625 
L 55.078125 68.703125 
L 28.609375 0 
L 18.3125 0 
L 43.21875 64.59375 
L 8.203125 64.59375 
z
" id="DejaVuSans-55"/>
       </defs>
       <use xlink:href="#DejaVuSans-55"/>
       <use x="63.623047" xlink:href="#DejaVuSans-53"/>
      </g>
     </g>
    </g>
    <g id="ytick_5">
     <g id="line2d_11">
      <g>
       <use style="stroke:#000000;stroke-width:0.8;" x="57.6" xlink:href="#m7c7fdd202d" y="174.528"/>
      </g>
     </g>
     <g id="text_12">
      <!-- 100 -->
      <g transform="translate(31.5125 178.327219)scale(0.1 -0.1)">
       <use xlink:href="#DejaVuSans-49"/>
       <use x="63.623047" xlink:href="#DejaVuSans-48"/>
       <use x="127.246094" xlink:href="#DejaVuSans-48"/>
      </g>
     </g>
    </g>
    <g id="ytick_6">
     <g id="line2d_12">
      <g>
       <use style="stroke:#000000;stroke-width:0.8;" x="57.6" xlink:href="#m7c7fdd202d" y="141.264"/>
      </g>
     </g>
     <g id="text_13">
      <!-- 125 -->
      <g transform="translate(31.5125 145.063219)scale(0.1 -0.1)">
       <use xlink:href="#DejaVuSans-49"/>
       <use x="63.623047" xlink:href="#DejaVuSans-50"/>
       <use x="127.246094" xlink:href="#DejaVuSans-53"/>
      </g>
     </g>
    </g>
    <g id="ytick_7">
     <g id="line2d_13">
      <g>
       <use style="stroke:#000000;stroke-width:0.8;" x="57.6" xlink:href="#m7c7fdd202d" y="108"/>
      </g>
     </g>
     <g id="text_14">
      <!-- 150 -->
      <g transform="translate(31.5125 111.799219)scale(0.1 -0.1)">
       <use xlink:href="#DejaVuSans-49"/>
       <use x="63.623047" xlink:href="#DejaVuSans-53"/>
       <use x="127.246094" xlink:href="#DejaVuSans-48"/>
      </g>
     </g>
    </g>
    <g id="ytick_8">
     <g id="line2d_14">
      <g>
       <use style="stroke:#000000;stroke-width:0.8;" x="57.6" xlink:href="#m7c7fdd202d" y="74.736"/>
      </g>
     </g>
     <g id="text_15">
      <!-- 175 -->
      <g transform="translate(31.5125 78.535219)scale(0.1 -0.1)">
       <use xlink:href="#DejaVuSans-49"/>
       <use x="63.623047" xlink:href="#DejaVuSans-55"/>
       <use x="127.246094" xlink:href="#DejaVuSans-53"/>
      </g>
     </g>
    </g>
    <g id="ytick_9">
     <g id="line2d_15">
      <g>
       <use style="stroke:#000000;stroke-width:0.8;" x="57.6" xlink:href="#m7c7fdd202d" y="41.472"/>
      </g>
     </g>
     <g id="text_16">
      <!-- 200 -->
      <g transform="translate(31.5125 45.271219)scale(0.1 -0.1)">
       <use xlink:href="#DejaVuSans-50"/>
       <use x="63.623047" xlink:href="#DejaVuSans-48"/>
       <use x="127.246094" xlink:href="#DejaVuSans-48"/>
      </g>
     </g>
    </g>
    <g id="text_17">
     <!-- EIV - gCO₂/ton/n.mile -->
     <g transform="translate(25.432812 227.210813)rotate(-90)scale(0.1 -0.1)">
      <defs>
       <path d="M 9.8125 72.90625 
L 55.90625 72.90625 
L 55.90625 64.59375 
L 19.671875 64.59375 
L 19.671875 43.015625 
L 54.390625 43.015625 
L 54.390625 34.71875 
L 19.671875 34.71875 
L 19.671875 8.296875 
L 56.78125 8.296875 
L 56.78125 0 
L 9.8125 0 
z
" id="DejaVuSans-69"/>
       <path d="M 9.8125 72.90625 
L 19.671875 72.90625 
L 19.671875 0 
L 9.8125 0 
z
" id="DejaVuSans-73"/>
       <path d="M 28.609375 0 
L 0.78125 72.90625 
L 11.078125 72.90625 
L 34.1875 11.53125 
L 57.328125 72.90625 
L 67.578125 72.90625 
L 39.796875 0 
z
" id="DejaVuSans-86"/>
       <path d="M 10.6875 12.40625 
L 21 12.40625 
L 21 0 
L 10.6875 0 
z
" id="DejaVuSans-46"/>
       <path d="M 9.421875 75.984375 
L 18.40625 75.984375 
L 18.40625 0 
L 9.421875 0 
z
" id="DejaVuSans-108"/>
      </defs>
      <use xlink:href="#DejaVuSans-69"/>
      <use x="63.183594" xlink:href="#DejaVuSans-73"/>
      <use x="92.675781" xlink:href="#DejaVuSans-86"/>
      <use x="161.083984" xlink:href="#DejaVuSans-32"/>
      <use x="192.871094" xlink:href="#DejaVuSans-45"/>
      <use x="228.955078" xlink:href="#DejaVuSans-32"/>
      <use x="260.742188" xlink:href="#DejaVuSans-103"/>
      <use x="324.21875" xlink:href="#DejaVuSans-67"/>
      <use x="394.042969" xlink:href="#DejaVuSans-79"/>
      <use x="472.753906" xlink:href="#DejaVuSans-8322"/>
      <use x="512.841797" xlink:href="#DejaVuSans-47"/>
      <use x="546.533203" xlink:href="#DejaVuSans-116"/>
      <use x="585.742188" xlink:href="#DejaVuSans-111"/>
      <use x="646.923828" xlink:href="#DejaVuSans-110"/>
      <use x="710.302734" xlink:href="#DejaVuSans-47"/>
      <use x="743.994141" xlink:href="#DejaVuSans-110"/>
      <use x="807.373047" xlink:href="#DejaVuSans-46"/>
      <use x="839.160156" xlink:href="#DejaVuSans-109"/>
      <use x="936.572266" xlink:href="#DejaVuSans-105"/>
      <use x="964.355469" xlink:href="#DejaVuSans-108"/>
      <use x="992.138672" xlink:href="#DejaVuSans-101"/>
     </g>
    </g>
   </g>
   <g id="patch_3">
    <path d="M 57.6 307.584 
L 57.6 41.472 
" style="fill:none;stroke:#000000;stroke-linecap:square;stroke-linejoin:miter;stroke-width:0.8;"/>
   </g>
   <g id="patch_4">
    <path d="M 414.72 307.584 
L 414.72 41.472 
" style="fill:none;stroke:#000000;stroke-linecap:square;stroke-linejoin:miter;stroke-width:0.8;"/>
   </g>
   <g id="patch_5">
    <path d="M 57.6 307.584 
L 414.72 307.584 
" style="fill:none;stroke:#000000;stroke-linecap:square;stroke-linejoin:miter;stroke-width:0.8;"/>
   </g>
   <g id="patch_6">
    <path d="M 57.6 41.472 
L 414.72 41.472 
" style="fill:none;stroke:#000000;stroke-linecap:square;stroke-linejoin:miter;stroke-width:0.8;"/>
   </g>
  </g>
 </g>
 <defs>
  <clipPath id="p7350d1a74b">
   <rect height="266.112" width="357.12" x="57.6" y="41.472"/>
  </clipPath>
 </defs>
</svg>
